<svg width="174" height="53" viewBox="0 0 174 53" fill="none" xmlns="http://www.w3.org/2000/svg">
<path d="M0 1.625H10.0938V20.75L21.1875 1.625H32.8438L17.9688 27.2188L35.25 52H22.9688L10.0938 33.5V52H0V1.625ZM39 0.6875L69.2188 29.4688V1.625H79.3125V52.9375L49.0938 24.125V52H39V0.6875ZM108.5 1.375L108.469 1.5C111.969 1.5 115.25 2.15625 118.344 3.5C121.438 4.84375 124.156 6.65625 126.5 8.9375L119.312 16.125C116.281 13.125 112.688 11.625 108.531 11.625C104.312 11.625 100.719 13.125 97.75 16.125C94.7812 19.125 93.2812 22.7188 93.2812 26.9062C93.2812 31.125 94.7812 34.7188 97.75 37.6875C100.719 40.6562 104.312 42.1562 108.531 42.1562C112.75 42.1562 116.344 40.6562 119.344 37.6562L126.531 44.8438C124.188 47.1562 121.469 48.9688 118.375 50.3125C115.281 51.6562 112 52.3125 108.5 52.3125C101.5 52.3125 95.5 49.8125 90.5312 44.8438C85.5625 39.875 83.0625 33.875 83.0625 26.875C83.0625 19.875 85.5625 13.875 90.5312 8.875C95.5 3.875 101.5 1.375 108.5 1.375ZM146.375 35.3438H155.281L150.844 24.875L146.375 35.3438ZM142.25 44.25L142.188 44.2188C141.062 46.7812 139.906 49.3125 138.75 51.875H127.906L150.75 0.6875L173.656 51.875H162.781C161.656 49.3438 160.531 46.7812 159.406 44.25H142.25Z" fill="white"/>
</svg>
