<svg width="184" height="36" viewBox="0 0 184 36" fill="none" xmlns="http://www.w3.org/2000/svg">
<path d="M0.75 0.40625H3.27344V5.1875L6.04688 0.40625H8.96094L5.24219 6.80469L9.5625 13H6.49219L3.27344 8.375V13H0.75V0.40625ZM10.5 13V0.40625H13.0234V13H10.5ZM14.2812 0.171875L21.8359 7.36719V0.40625H24.3594V13.2344L16.8047 6.03125V13H14.2812V0.171875ZM25.2969 0.40625H28.1562L30.3281 4.39844L32.5 0.40625H35.3672L31.5859 7.35156V13H29.0703V7.35156L25.2969 0.40625ZM40.5938 8.83594H42.8203L41.7109 6.21875L40.5938 8.83594ZM39.5625 11.0625L39.5312 11.1562L38.7109 12.9688H38.2734H38.1719H36.5312H35.9922L41.7031 0.171875L47.4297 12.9688H46.8906H45.25H45.1406H44.7031L43.8906 11.1484L43.8516 11.0625H39.5625ZM48.375 0.171875L55.9297 7.36719V0.40625H58.4531V13.2344L50.8984 6.03125V13H48.375V0.171875ZM64.7266 0.421875L67.2422 0.4375L67.2891 5.49219V8.0625C67.2891 9.46094 66.7969 10.6484 65.8047 11.6328C64.8281 12.6016 63.6562 13.0938 62.2891 13.1094C62.2734 13.1094 62.2578 13.1094 62.2422 13.1094H62.2031C61.1484 13.1016 60.2109 12.8047 59.3906 12.2266L60.6641 10.0156C61.0312 10.3203 61.4453 10.5 61.9062 10.5547C62.0156 10.5703 62.1172 10.5781 62.2188 10.5781H62.2422H62.2734C62.3672 10.5781 62.4688 10.5703 62.5781 10.5547C63.125 10.4844 63.6094 10.2422 64.0234 9.82812C64.5234 9.33594 64.7734 8.74219 64.7734 8.04688V7.78906V5.52344L64.7266 0.421875ZM76.1328 0.40625H78.6719V5.46875V8C78.6719 9.39844 78.1797 10.5938 77.1875 11.5859C76.1953 12.5781 75 13.0703 73.6094 13.0703C72.2109 13.0703 71.0156 12.5781 70.0234 11.5859C69.0312 10.5938 68.5391 9.39844 68.5391 8V5.46875V0.40625H71.0781V5.46875V7.73438V7.99219C71.0781 8.6875 71.3281 9.28125 71.8203 9.77344C72.3125 10.2656 72.9062 10.5156 73.6016 10.5156C74.2891 10.5156 74.8828 10.2656 75.3828 9.77344C75.8828 9.28125 76.1328 8.6875 76.1328 7.99219V7.73438V5.46875V0.40625ZM79.9219 13V0.40625H82.4453V13H79.9219ZM88.3906 0.171875L95.9453 7.36719V0.40625H98.4688V13.2344L90.9141 6.03125V13H88.3906V0.171875ZM104.742 0.421875L107.258 0.4375L107.305 5.49219V8.0625C107.305 9.46094 106.812 10.6484 105.82 11.6328C104.844 12.6016 103.672 13.0938 102.305 13.1094C102.289 13.1094 102.273 13.1094 102.258 13.1094H102.219C101.164 13.1016 100.227 12.8047 99.4062 12.2266L100.68 10.0156C101.047 10.3203 101.461 10.5 101.922 10.5547C102.031 10.5703 102.133 10.5781 102.234 10.5781H102.258H102.289C102.383 10.5781 102.484 10.5703 102.594 10.5547C103.141 10.4844 103.625 10.2422 104.039 9.82812C104.539 9.33594 104.789 8.74219 104.789 8.04688V7.78906V5.52344L104.742 0.421875ZM108.562 0.40625H116.117V2.92188H111.086V5.44531H114.859V7.96094H111.086V10.4766H116.117V13H111.086H108.562V0.40625ZM117.297 13L117.289 0.390625H121.383C122.594 0.390625 123.789 0.8125 124.656 1.67969C125.523 2.54688 125.875 3.35938 125.875 4.57031V4.96094C125.875 5.89844 125.609 6.58594 125.078 7.33594C124.547 8.08594 124.102 8.30469 123.273 8.61719L126.117 13H123.039L119.82 8.07812V13H117.297ZM119.812 6.45312L121.617 6.46094C122.141 6.46094 122.406 6.32812 122.773 5.96094C123.141 5.59375 123.273 5.17188 123.273 4.64844C123.273 4.13281 123.141 3.78906 122.773 3.41406C122.406 3.03906 121.75 2.90625 121.227 2.90625H119.812V6.45312ZM134.883 0.40625H137.422V5.46875V8C137.422 9.39844 136.93 10.5938 135.938 11.5859C134.945 12.5781 133.75 13.0703 132.359 13.0703C130.961 13.0703 129.766 12.5781 128.773 11.5859C127.781 10.5938 127.289 9.39844 127.289 8V5.46875V0.40625H129.828V5.46875V7.73438V7.99219C129.828 8.6875 130.078 9.28125 130.57 9.77344C131.062 10.2656 131.656 10.5156 132.352 10.5156C133.039 10.5156 133.633 10.2656 134.133 9.77344C134.633 9.28125 134.883 8.6875 134.883 7.99219V7.73438V5.46875V0.40625ZM150.5 6.74219L152.852 6.71094C152.82 7.95312 152.766 9.00781 152.336 9.95312C152.898 10.3047 153.578 10.7266 154.172 10.7109L154.164 13.0469C153.141 13.0469 152.273 12.6328 151.773 12.3438C151.414 12.1328 151.133 11.9766 150.906 11.7812C150.719 12.0078 150.625 12.0938 150.391 12.2656C149.672 12.8125 148.32 13.1328 147.359 13.1328C146.211 13.1328 145.164 12.6797 144.398 11.9453C143.625 11.1953 143.195 10.2422 143.195 9.10156C143.227 7.64844 144.086 6.84375 144.859 6.09375C144.883 6.07031 145.039 5.94531 145.07 5.92188C144.633 5.32812 144.281 4.28906 144.258 3.61719C144.258 2.63281 144.695 1.99219 145.219 1.46875C145.742 0.945312 146.828 0.328125 147.812 0.328125C148.648 0.328125 149.43 0.625 150.047 1.125C150.664 1.625 151.117 2.32812 151.297 3.14844L148.797 3.67969C148.75 3.44531 148.625 3.25 148.453 3.10938C148.281 2.96875 148.055 2.88281 147.812 2.88281C147.305 2.88281 146.938 3.15625 146.844 3.63281C146.797 3.89844 147.398 4.96875 147.477 5.10938C147.703 5.5 148.234 6.25781 149.062 7.08594C149.312 7.33594 150.047 8.14062 150.367 8.4375C150.469 7.98438 150.461 7.46094 150.5 6.74219ZM148.969 10.1016V10.1094C148.68 9.85156 147.281 8.71875 146.578 7.5625C146.125 7.89062 145.562 8.26562 145.586 9.13281C145.586 9.55469 145.852 10.0312 146.141 10.3047C146.438 10.5938 146.898 10.6641 147.367 10.6641C147.758 10.6641 148.578 10.4375 148.859 10.2188C148.898 10.1953 148.922 10.1719 148.969 10.1016ZM165.844 0.34375L165.836 0.375C166.711 0.375 167.531 0.539062 168.305 0.875C169.078 1.21094 169.758 1.66406 170.344 2.23438L168.547 4.03125C167.789 3.28125 166.891 2.90625 165.852 2.90625C164.797 2.90625 163.898 3.28125 163.156 4.03125C162.414 4.78125 162.039 5.67969 162.039 6.72656C162.039 7.78125 162.414 8.67969 163.156 9.42188C163.898 10.1641 164.797 10.5391 165.852 10.5391C166.906 10.5391 167.805 10.1641 168.555 9.41406L170.352 11.2109C169.766 11.7891 169.086 12.2422 168.312 12.5781C167.539 12.9141 166.719 13.0781 165.844 13.0781C164.094 13.0781 162.594 12.4531 161.352 11.2109C160.109 9.96875 159.484 8.46875 159.484 6.71875C159.484 4.96875 160.109 3.46875 161.352 2.21875C162.594 0.96875 164.094 0.34375 165.844 0.34375ZM177.328 0.34375C179.078 0.34375 180.578 0.96875 181.828 2.21875C183.078 3.46875 183.703 4.96875 183.703 6.71875C183.703 8.46875 183.078 9.96875 181.828 11.2109C180.578 12.4531 179.078 13.0781 177.328 13.0781C175.578 13.0781 174.078 12.4531 172.836 11.2109C171.594 9.96875 170.969 8.46875 170.969 6.71875C170.969 4.96875 171.594 3.46875 172.836 2.21875C174.078 0.96875 175.578 0.34375 177.328 0.34375ZM177.328 2.88281C176.273 2.88281 175.375 3.25781 174.633 4.00781C173.891 4.75781 173.516 5.65625 173.516 6.70312C173.516 7.75781 173.891 8.65625 174.633 9.39844C175.375 10.1406 176.273 10.5156 177.328 10.5156C178.375 10.5156 179.273 10.1406 180.023 9.39844C180.773 8.65625 181.148 7.75781 181.148 6.70312C181.148 5.65625 180.773 4.75781 180.023 4.00781C179.273 3.25781 178.375 2.88281 177.328 2.88281ZM91.7812 30.8359H94.0078L92.8984 28.2188L91.7812 30.8359ZM90.75 33.0625L90.7344 33.0547C90.4531 33.6953 90.1641 34.3281 89.875 34.9688H87.1641L92.875 22.1719L98.6016 34.9688H95.8828C95.6016 34.3359 95.3203 33.6953 95.0391 33.0625H90.75ZM102.664 22.4375V22.4297C104.391 22.4297 106.023 23.0469 107.258 24.2812C109.508 26.5312 109.508 30.9141 107.258 33.1562C106.023 34.3828 104.391 35 102.664 35H99.5547V22.4375H102.664ZM102.672 32.4766H102.68C103.711 32.4766 104.664 32.1875 105.398 31.4531C106.133 30.7188 106.422 29.75 106.422 28.7109C106.422 27.6797 106.133 26.7109 105.391 25.9688C104.656 25.2266 103.688 24.9375 102.656 24.9375H102.078V32.4766H102.672ZM119.812 22.4062L114.141 35.2344L108.484 22.4062H108.984H110.641H110.742H111.148L114.133 29.2734L117.117 22.4062H117.648H119.812ZM126.797 22.3438C128.547 22.3438 130.047 22.9688 131.297 24.2188C132.547 25.4688 133.172 26.9688 133.172 28.7188C133.172 30.4688 132.547 31.9688 131.297 33.2109C130.047 34.4531 128.547 35.0781 126.797 35.0781C125.047 35.0781 123.547 34.4531 122.305 33.2109C121.062 31.9688 120.438 30.4688 120.438 28.7188C120.438 26.9688 121.062 25.4688 122.305 24.2188C123.547 22.9688 125.047 22.3438 126.797 22.3438ZM126.797 24.8828C125.742 24.8828 124.844 25.2578 124.102 26.0078C123.359 26.7578 122.984 27.6562 122.984 28.7031C122.984 29.7578 123.359 30.6562 124.102 31.3984C124.844 32.1406 125.742 32.5156 126.797 32.5156C127.844 32.5156 128.742 32.1406 129.492 31.3984C130.242 30.6562 130.617 29.7578 130.617 28.7031C130.617 27.6562 130.242 26.7578 129.492 26.0078C128.742 25.2578 127.844 24.8828 126.797 24.8828ZM140.141 22.3438L140.133 22.375C141.008 22.375 141.828 22.5391 142.602 22.875C143.375 23.2109 144.055 23.6641 144.641 24.2344L142.844 26.0312C142.086 25.2812 141.188 24.9062 140.148 24.9062C139.094 24.9062 138.195 25.2812 137.453 26.0312C136.711 26.7812 136.336 27.6797 136.336 28.7266C136.336 29.7812 136.711 30.6797 137.453 31.4219C138.195 32.1641 139.094 32.5391 140.148 32.5391C141.203 32.5391 142.102 32.1641 142.852 31.4141L144.648 33.2109C144.062 33.7891 143.383 34.2422 142.609 34.5781C141.836 34.9141 141.016 35.0781 140.141 35.0781C138.391 35.0781 136.891 34.4531 135.648 33.2109C134.406 31.9688 133.781 30.4688 133.781 28.7188C133.781 26.9688 134.406 25.4688 135.648 24.2188C136.891 22.9688 138.391 22.3438 140.141 22.3438ZM149.609 30.8359H151.836L150.727 28.2188L149.609 30.8359ZM148.578 33.0625L148.547 33.1562L147.727 34.9688H147.289H147.188H145.547H145.008L150.719 22.1719L156.445 34.9688H155.906H154.266H154.156H153.719L152.906 33.1484L152.867 33.0625H148.578ZM160.383 22.4062H162.906H166.055V24.9219H162.906V35H160.383V24.9219H157.234V22.4062H160.383ZM167.156 22.4062H174.711V24.9219H169.68V27.4453H173.453V29.9609H169.68V32.4766H174.711V35H169.68H167.156V22.4062ZM179.633 32.5156L179.625 32.5C180.32 32.5 180.898 31.9219 180.898 31.2266C180.898 30.6875 180.688 30.3438 180.258 30.1875C179.352 29.8516 179.57 29.9297 178.688 29.625C177.758 29.3047 176.898 28.6719 176.32 27.8828C175.977 27.4141 175.805 26.8359 175.805 26.1406C175.805 25.0938 176.18 24.1953 176.93 23.4453C177.68 22.6953 178.578 22.3203 179.633 22.3203C180.68 22.3203 181.578 22.6953 182.328 23.4453C183.078 24.1953 183.453 25.0938 183.453 26.1406H180.914C180.914 25.4531 180.336 24.875 179.648 24.875C178.953 24.875 178.375 25.4531 178.375 26.1484C178.375 26.6016 178.555 26.9453 178.922 27.1797C179.672 27.6641 179.586 27.5703 180.484 27.8359C181.453 28.1172 182.328 28.7188 182.93 29.4922C183.281 29.9453 183.461 30.5312 183.461 31.2422C183.461 32.2969 183.086 33.1953 182.336 33.9453C181.586 34.6953 180.688 35.0703 179.641 35.0703C178.586 35.0703 177.688 34.6953 176.938 33.9453C176.188 33.1953 175.812 32.2969 175.812 31.2422H178.359C178.359 31.9453 178.93 32.5156 179.633 32.5156Z" fill="white"/>
</svg>
