<svg width="31" height="25" viewBox="0 0 31 25" fill="none" xmlns="http://www.w3.org/2000/svg">
<path d="M3.16659 24.8333C2.31867 24.8333 1.59306 24.5317 0.989752 23.9284C0.386446 23.3251 0.0842797 22.5989 0.083252 21.75V3.24999C0.083252 2.40207 0.385419 1.67646 0.989752 1.07316C1.59409 0.469851 2.3197 0.167684 3.16659 0.166656H27.8333C28.6812 0.166656 29.4073 0.468823 30.0116 1.07316C30.616 1.67749 30.9176 2.4031 30.9166 3.24999V21.75C30.9166 22.5979 30.6149 23.324 30.0116 23.9284C29.4083 24.5327 28.6822 24.8344 27.8333 24.8333H3.16659ZM15.4999 14.0417L3.16659 6.33332V21.75H27.8333V6.33332L15.4999 14.0417ZM15.4999 10.9583L27.8333 3.24999H3.16659L15.4999 10.9583ZM3.16659 6.33332V3.24999V21.75V6.33332Z" fill="#F1C25D"/>
</svg>
