<svg width="150" height="140" viewBox="0 0 150 140" fill="none" xmlns="http://www.w3.org/2000/svg">
<path d="M79.8881 5.25V17.5H92.7701C95.0596 17.5 97.2968 18.242 99.1883 19.621L110.257 27.699C110.531 27.895 110.835 27.9953 111.17 28H137.926C139.223 28 140.467 28.5531 141.385 29.5377C142.302 30.5223 142.818 31.8576 142.818 33.25C142.818 34.6424 142.302 35.9777 141.385 36.9623C140.467 37.9469 139.223 38.5 137.926 38.5H127.633L149.588 92.26C150.027 93.335 150.118 94.5369 149.846 95.6738C149.574 96.8107 148.955 97.817 148.088 98.532C147.436 99.05 146.762 99.5307 146.066 99.974C144.415 101.04 142.692 101.973 140.913 102.767C135.013 105.415 128.68 106.769 122.285 106.75C115.892 106.78 109.558 105.428 103.663 102.774C101.883 101.978 100.161 101.042 98.51 99.974C97.8162 99.547 97.1475 99.0748 96.5076 98.56L96.4749 98.532C95.6076 97.817 94.9885 96.8107 94.7165 95.6738C94.4446 94.5369 94.5355 93.335 94.9748 92.26L116.943 38.5H111.164C108.874 38.5 106.637 37.758 104.746 36.379L93.6768 28.301C93.4072 28.1051 93.0892 28.0003 92.7636 28H79.8881V129.5H109.155C110.452 129.5 111.696 130.053 112.614 131.038C113.531 132.022 114.047 133.358 114.047 134.75C114.047 136.142 113.531 137.478 112.614 138.462C111.696 139.447 110.452 140 109.155 140H40.8375C39.5401 140 38.2958 139.447 37.3784 138.462C36.461 137.478 35.9456 136.142 35.9456 134.75C35.9456 133.358 36.461 132.022 37.3784 131.038C38.2958 130.053 39.5401 129.5 40.8375 129.5H70.1042V28H57.2222C56.8966 28.0003 56.5786 28.1051 56.309 28.301L45.2468 36.379C43.3552 37.758 41.118 38.5 38.8286 38.5H33.0496L55.0176 92.26C55.4428 93.3044 55.5397 94.4689 55.2938 95.5777C55.0478 96.6865 54.4724 97.6792 53.6543 98.406C53.1325 98.861 52.6107 99.288 51.6323 99.967C49.9837 101.115 48.2569 102.128 46.4665 102.998C40.577 105.875 34.1786 107.355 27.7076 107.338C21.2366 107.355 14.8382 105.875 8.94872 102.998C7.15829 102.128 5.43145 101.115 3.78285 99.967C3.08857 99.4859 2.41599 98.9696 1.76738 98.42C0.954112 97.6863 0.382006 96.6916 0.135394 95.5826C-0.111217 94.4735 -0.019284 93.3087 0.39764 92.26L22.3591 38.5H12.073C10.7756 38.5 9.53132 37.9469 8.61391 36.9623C7.6965 35.9777 7.1811 34.6424 7.1811 33.25C7.1811 31.8576 7.6965 30.5223 8.61391 29.5377C9.53132 28.5531 10.7756 28 12.073 28H38.8286C39.159 28 39.4656 27.8997 39.7482 27.699L50.804 19.621C52.6955 18.235 54.9393 17.5 57.2287 17.5H70.1042V5.25C70.1042 3.85761 70.6196 2.52225 71.537 1.53769C72.4545 0.553123 73.6987 0 74.9962 0C76.2936 0 77.5378 0.553123 78.4553 1.53769C79.3727 2.52225 79.8881 3.85761 79.8881 5.25ZM11.0294 92.386C16.1616 95.3228 21.8915 96.8499 27.7076 96.831C33.5237 96.8499 39.2536 95.3228 44.3858 92.386L27.7076 51.576L11.0294 92.386ZM105.672 92.218C106.207 92.498 106.805 92.792 107.465 93.1C110.922 94.661 115.977 96.25 122.285 96.25C128.035 96.2665 133.714 94.8882 138.898 92.218L122.285 51.569L105.672 92.218Z" fill="#F1C25D"/>
</svg>
